<?xml version="1.0" encoding="UTF-8" standalone="no"?>
<svg
   xmlns:dc="http://purl.org/dc/elements/1.1/"
   xmlns:cc="http://creativecommons.org/ns#"
   xmlns:rdf="http://www.w3.org/1999/02/22-rdf-syntax-ns#"
   xmlns:svg="http://www.w3.org/2000/svg"
   xmlns="http://www.w3.org/2000/svg"
   xmlns:sodipodi="http://sodipodi.sourceforge.net/DTD/sodipodi-0.dtd"
   xmlns:inkscape="http://www.inkscape.org/namespaces/inkscape"
   inkscape:version="1.0 (4035a4fb49, 2020-05-01)"
   sodipodi:docname="person-add.svg"
   id="svg4"
   version="1.1"
   height="16"
   width="16"
   viewBox="0 0 16 16">
  <metadata
     id="metadata10">
    <rdf:RDF>
      <cc:Work
         rdf:about="">
        <dc:format>image/svg+xml</dc:format>
        <dc:type
           rdf:resource="http://purl.org/dc/dcmitype/StillImage" />
      </cc:Work>
    </rdf:RDF>
  </metadata>
  <defs
     id="defs8" />
  <sodipodi:namedview
     inkscape:current-layer="svg4"
     inkscape:window-maximized="1"
     inkscape:window-y="-9"
     inkscape:window-x="-9"
     inkscape:cy="8"
     inkscape:cx="8"
     inkscape:zoom="51.875"
     showgrid="false"
     id="namedview6"
     inkscape:window-height="1001"
     inkscape:window-width="1920"
     inkscape:pageshadow="2"
     inkscape:pageopacity="0"
     guidetolerance="10"
     gridtolerance="10"
     objecttolerance="10"
     borderopacity="1"
     bordercolor="#666666"
     pagecolor="#ffffff" />
  <path
     style="fill:#22863a;fill-opacity:1"
     id="path2"
     d="M13.25 0a.75.75 0 01.75.75V2h1.25a.75.75 0 010 1.5H14v1.25a.75.75 0 01-1.5 0V3.5h-1.25a.75.75 0 010-1.5h1.25V.75a.75.75 0 01.75-.75zM5.5 4a2 2 0 100 4 2 2 0 000-4zm2.4 4.548a3.5 3.5 0 10-4.799 0 5.527 5.527 0 00-3.1 4.66.75.75 0 101.498.085A4.01 4.01 0 015.5 9.5a4.01 4.01 0 014.001 3.793.75.75 0 101.498-.086 5.527 5.527 0 00-3.1-4.659z"
     fill-rule="evenodd" />
</svg>
