<?xml version="1.0" encoding="UTF-8" standalone="no"?>
<svg
   xmlns:dc="http://purl.org/dc/elements/1.1/"
   xmlns:cc="http://creativecommons.org/ns#"
   xmlns:rdf="http://www.w3.org/1999/02/22-rdf-syntax-ns#"
   xmlns:svg="http://www.w3.org/2000/svg"
   xmlns="http://www.w3.org/2000/svg"
   xmlns:sodipodi="http://sodipodi.sourceforge.net/DTD/sodipodi-0.dtd"
   xmlns:inkscape="http://www.inkscape.org/namespaces/inkscape"
   inkscape:version="1.0 (4035a4fb49, 2020-05-01)"
   sodipodi:docname="git-pull-request-closed.svg"
   id="svg4"
   version="1.1"
   height="16"
   width="16"
   viewBox="0 0 16 16">
  <metadata
     id="metadata10">
    <rdf:RDF>
      <cc:Work
         rdf:about="">
        <dc:format>image/svg+xml</dc:format>
        <dc:type
           rdf:resource="http://purl.org/dc/dcmitype/StillImage" />
      </cc:Work>
    </rdf:RDF>
  </metadata>
  <defs
     id="defs8" />
  <sodipodi:namedview
     inkscape:current-layer="svg4"
     inkscape:window-maximized="1"
     inkscape:window-y="-9"
     inkscape:window-x="-9"
     inkscape:cy="7.2289157"
     inkscape:cx="8"
     inkscape:zoom="51.875"
     showgrid="false"
     id="namedview6"
     inkscape:window-height="1001"
     inkscape:window-width="1920"
     inkscape:pageshadow="2"
     inkscape:pageopacity="0"
     guidetolerance="10"
     gridtolerance="10"
     objecttolerance="10"
     borderopacity="1"
     bordercolor="#666666"
     pagecolor="#ffffff" />
  <path
     style="fill:#d73a49;fill-opacity:1"
     id="path2"
     d="M10.72 1.227a.75.75 0 011.06 0l.97.97.97-.97a.75.75 0 111.06 1.061l-.97.97.97.97a.75.75 0 01-1.06 1.06l-.97-.97-.97.97a.75.75 0 11-1.06-1.06l.97-.97-.97-.97a.75.75 0 010-1.06zM12.75 6.5a.75.75 0 00-.75.75v3.378a2.251 2.251 0 101.5 0V7.25a.75.75 0 00-.75-.75zm0 5.5a.75.75 0 100 1.5.75.75 0 000-1.5zM2.5 3.25a.75.75 0 111.5 0 .75.75 0 01-1.5 0zM3.25 1a2.25 2.25 0 00-.75 4.372v5.256a2.251 2.251 0 101.5 0V5.372A2.25 2.25 0 003.25 1zm0 11a.75.75 0 100 1.5.75.75 0 000-1.5z"
     fill-rule="evenodd" />
</svg>
